<?xml version="1.0" standalone="no"?>
<!DOCTYPE svg PUBLIC "-//W3C//DTD SVG 20010904//EN"
 "http://www.w3.org/TR/2001/REC-SVG-20010904/DTD/svg10.dtd">
<svg version="1.0" xmlns="http://www.w3.org/2000/svg"
 width="1280.000000pt" height="640.000000pt" viewBox="0 0 1280.000000 640.000000"
 preserveAspectRatio="xMidYMid meet">
<metadata>
Created by potrace 1.15, written by Peter Selinger 2001-2017
</metadata>
<g transform="translate(0.000000,640.000000) scale(0.100000,-0.100000)"
fill="#000000" stroke="none">
<path d="M461 4135 c-231 -43 -440 -255 -458 -462 -14 -166 82 -345 222 -413
41 -20 65 -25 130 -24 111 1 182 29 257 104 96 96 112 207 45 307 -106 157
-365 128 -385 -42 -2 -24 -2 -55 2 -68 10 -42 66 -87 129 -104 31 -9 57 -20
57 -23 0 -20 -58 -44 -105 -44 -56 0 -99 19 -142 63 -51 51 -68 97 -68 186 0
70 4 86 28 128 81 137 240 215 386 189 176 -31 317 -171 425 -425 61 -143 61
-140 -32 -233 -63 -63 -88 -97 -120 -164 -71 -146 -88 -277 -57 -424 44 -209
226 -406 389 -423 108 -11 189 57 223 188 l17 69 708 0 c600 0 708 -2 715 -14
4 -8 20 -17 35 -21 23 -6 30 -2 51 32 14 21 30 55 37 77 l12 39 26 -34 c103
-133 181 -189 275 -196 70 -6 77 -2 97 60 6 20 18 44 27 52 13 13 369 15 3013
15 2644 0 3000 -2 3013 -15 9 -8 21 -32 27 -52 20 -62 27 -66 97 -60 94 7 172
63 275 196 l26 34 12 -39 c7 -22 23 -56 37 -77 21 -34 28 -38 51 -32 15 4 31
13 35 21 7 12 115 14 717 14 l708 0 7 -42 c43 -252 272 -290 469 -76 179 193
215 458 95 707 -33 69 -58 102 -121 165 -93 93 -93 90 -32 233 56 131 111 219
184 292 75 75 151 117 241 133 146 25 306 -54 387 -191 23 -40 27 -57 27 -126
0 -90 -15 -131 -67 -184 -45 -46 -85 -64 -143 -64 -47 -1 -105 23 -105 43 0 3
26 14 58 23 62 17 118 62 128 104 10 40 -2 109 -25 141 -52 74 -176 94 -272
44 -102 -53 -147 -157 -114 -268 22 -77 104 -161 190 -194 86 -34 201 -34 270
0 99 48 177 151 210 277 20 77 19 138 -5 215 -77 251 -360 427 -624 388 -167
-24 -281 -88 -451 -251 l-120 -116 -79 63 c-131 104 -282 174 -377 174 -39 0
-55 -5 -81 -29 l-32 -29 -38 31 c-39 31 -111 46 -162 33 -41 -10 -83 -53 -90
-91 l-7 -35 -61 31 c-145 73 -264 33 -285 -96 -3 -19 -7 -35 -9 -35 -2 0 -37
11 -78 25 -144 48 -237 24 -288 -74 -16 -29 -28 -67 -28 -85 0 -53 -10 -58
-60 -34 -27 14 -70 24 -109 26 -80 6 -119 -13 -151 -70 -19 -34 -22 -51 -19
-121 l4 -81 -55 -14 c-151 -39 -274 56 -274 213 1 63 24 125 60 156 11 9 53
21 94 27 66 10 79 15 108 46 26 29 32 44 32 80 0 36 -5 48 -26 65 -15 12 -36
21 -48 21 -85 -1 -226 -139 -279 -274 -29 -73 -27 -200 3 -281 31 -82 59 -123
118 -176 115 -103 275 -106 465 -7 100 52 163 99 301 222 168 149 274 220 426
283 113 47 208 63 373 63 211 0 368 -32 529 -108 50 -24 56 -29 45 -43 -12
-15 -23 -14 -136 17 -334 91 -637 83 -873 -24 -107 -48 -204 -122 -323 -244
-126 -129 -202 -191 -307 -248 -186 -100 -351 -90 -533 32 -79 52 -128 105
-166 178 -20 39 -23 58 -21 135 1 50 3 106 4 125 3 31 0 35 -22 38 -37 4 -82
-29 -122 -89 -59 -90 -81 -161 -82 -264 -1 -79 3 -98 27 -150 16 -34 47 -78
74 -102 l46 -43 -2673 0 -2673 0 46 43 c27 24 58 68 74 102 24 52 28 71 27
150 -1 103 -23 174 -82 264 -40 60 -85 93 -122 89 -28 -3 -29 -12 -15 -129 18
-159 -76 -298 -271 -395 -142 -71 -277 -69 -429 5 -109 54 -194 121 -338 265
-67 67 -151 142 -186 165 -256 173 -601 207 -1002 97 -113 -31 -124 -32 -136
-17 -11 14 -5 19 45 43 161 76 318 108 529 108 165 0 260 -16 373 -63 152 -63
258 -134 426 -283 140 -125 210 -177 307 -225 194 -98 348 -93 467 17 122 113
168 303 110 455 -48 127 -192 268 -276 269 -12 0 -33 -9 -48 -21 -21 -17 -26
-29 -26 -65 0 -36 6 -51 33 -80 28 -31 41 -36 107 -46 41 -6 83 -18 94 -27 36
-31 59 -93 60 -156 0 -157 -123 -252 -274 -213 l-55 14 4 81 c4 91 -8 124 -61
168 -29 25 -38 27 -102 23 -47 -2 -86 -11 -116 -25 -50 -25 -60 -20 -60 33 0
18 -12 56 -28 85 -51 98 -144 122 -288 74 -41 -14 -76 -25 -78 -25 -2 0 -6 16
-9 35 -21 129 -140 169 -285 96 l-61 -31 -7 35 c-7 38 -49 81 -90 91 -51 13
-123 -2 -162 -33 l-38 -31 -32 29 c-26 24 -42 29 -81 29 -103 0 -269 -80 -407
-196 l-50 -43 -95 95 c-103 105 -182 166 -274 213 -118 59 -258 80 -384 56z
m359 -172 c167 -80 347 -318 367 -485 9 -73 -11 -55 -38 35 -50 171 -149 297
-325 412 -50 33 -99 66 -110 73 -36 24 25 3 106 -35z m11266 34 c-202 -127
-290 -201 -352 -294 -21 -31 -54 -103 -74 -159 -19 -57 -39 -106 -43 -110 -16
-16 -5 65 17 129 65 184 221 352 392 422 63 26 91 32 60 12z m-10366 -427
c105 -30 194 -82 271 -160 70 -71 133 -180 127 -220 l-3 -22 -25 20 c-14 11
-53 58 -88 104 -34 46 -84 101 -111 121 -102 78 -240 113 -419 105 -110 -5
-115 -3 -123 47 -3 17 3 21 46 27 84 11 245 0 325 -22z m9732 12 c3 -4 1 -21
-7 -38 l-13 -31 -110 5 c-125 5 -218 -8 -305 -43 -88 -36 -138 -79 -223 -187
-83 -109 -114 -134 -114 -95 0 45 62 149 129 217 98 99 214 156 366 181 56 9
266 2 277 -9z m-9109 -105 c139 -139 187 -260 222 -556 9 -74 21 -156 26 -183
6 -27 9 -52 6 -54 -2 -3 -326 -7 -718 -10 -825 -5 -764 2 -814 -102 -16 -34
-32 -62 -35 -62 -11 0 -53 72 -78 132 -36 87 -38 231 -4 330 57 166 178 282
337 324 130 35 203 10 287 -101 48 -63 62 -75 144 -115 108 -53 120 -62 144
-111 20 -39 47 -56 63 -40 5 5 14 41 20 80 6 39 14 71 17 71 4 0 17 -24 30
-52 48 -110 231 -259 348 -283 41 -8 41 3 1 61 -30 44 -31 52 -40 187 -5 78
-11 154 -15 170 l-6 27 86 0 86 0 0 43 c0 62 -43 127 -153 235 -128 124 -132
131 -67 96 30 -16 81 -55 113 -87z m8165 -4 c-124 -126 -158 -179 -158 -243
l0 -40 86 0 86 0 -7 -30 c-4 -17 -10 -91 -14 -165 -8 -128 -10 -138 -39 -186
-40 -64 -40 -72 1 -64 116 25 282 158 338 271 18 35 36 64 40 64 5 0 9 -17 10
-37 1 -64 22 -118 45 -116 10 1 24 9 29 18 42 71 54 82 150 130 91 46 104 56
153 120 64 84 114 115 186 115 272 -1 497 -276 459 -562 -13 -99 -95 -271
-110 -231 -25 68 -62 119 -98 137 -37 20 -54 21 -255 18 -118 -2 -441 -1 -717
3 l-502 8 9 21 c4 12 15 77 24 146 32 241 48 325 73 388 53 132 159 260 264
321 29 17 56 31 58 31 3 0 -47 -53 -111 -117z m-7736 -434 c31 -30 94 -71 176
-113 159 -82 233 -141 283 -225 22 -36 37 -66 34 -69 -2 -2 -30 19 -62 48 -68
60 -141 106 -198 121 -71 19 -174 80 -230 136 -55 55 -125 177 -125 217 0 17
7 13 37 -24 20 -25 58 -66 85 -91z m7345 27 c-45 -89 -127 -173 -218 -221 -37
-19 -74 -35 -82 -35 -31 0 -155 -72 -215 -125 -35 -30 -65 -55 -68 -55 -2 0 8
24 22 52 44 87 123 154 264 227 152 78 203 115 272 199 65 79 76 62 25 -42z
m-912 -225 c61 -7 135 -18 165 -25 61 -13 64 -20 35 -88 l-15 -38 -2990 0
-2989 0 -21 47 c-11 26 -19 52 -16 59 4 10 53 22 176 40 117 18 648 21 3005
19 1930 -1 2566 -5 2650 -14z"/>
</g>
</svg>
