<?xml version="1.0" standalone="no"?>
<!DOCTYPE svg PUBLIC "-//W3C//DTD SVG 20010904//EN"
 "http://www.w3.org/TR/2001/REC-SVG-20010904/DTD/svg10.dtd">
<svg version="1.0" xmlns="http://www.w3.org/2000/svg"
 width="1280.000000pt" height="640.000000pt" viewBox="0 0 1280.000000 640.000000"
 preserveAspectRatio="xMidYMid meet">
<metadata>
Created by potrace 1.15, written by Peter Selinger 2001-2017
</metadata>
<g transform="translate(0.000000,640.000000) scale(0.100000,-0.100000)"
fill="#000000" stroke="none">
<path d="M484 4640 c-162 -24 -320 -128 -398 -263 -103 -177 -112 -414 -23
-602 96 -200 260 -328 503 -391 83 -22 123 -26 249 -28 83 0 176 2 208 7 l58
7 -16 -29 c-34 -67 -8 -158 56 -193 28 -16 46 -18 98 -13 34 3 77 11 94 18 29
12 35 11 79 -20 55 -36 102 -48 155 -40 97 16 221 112 337 261 72 91 229 247
356 352 118 98 123 98 46 8 -380 -444 -506 -1016 -321 -1455 152 -362 493
-551 875 -485 243 42 436 205 515 433 29 84 49 221 40 283 l-6 46 66 -4 66 -4
73 -73 c85 -85 198 -146 314 -170 78 -16 255 -19 336 -6 50 8 50 8 112 -44
227 -193 561 -261 790 -160 113 50 170 133 182 263 l7 75 70 22 c109 34 214
79 378 161 l150 75 106 -49 c182 -85 300 -126 361 -126 61 0 179 41 361 126
l106 49 150 -75 c164 -82 269 -127 378 -161 l70 -22 7 -75 c4 -43 16 -95 28
-122 68 -143 273 -212 524 -176 150 22 297 90 420 195 62 52 62 52 112 44 82
-13 258 -10 336 6 118 25 229 85 314 170 l73 73 65 4 66 4 -6 -46 c-8 -61 12
-200 41 -283 34 -99 80 -171 161 -253 228 -230 647 -259 933 -64 257 174 395
490 377 865 -15 333 -158 674 -402 959 -77 90 -72 90 46 -8 127 -105 284 -261
356 -352 116 -149 240 -245 337 -261 53 -8 100 4 155 40 44 31 50 32 79 20 17
-7 60 -15 94 -18 52 -5 70 -3 98 13 64 35 90 126 56 193 l-16 29 58 -7 c32 -5
126 -7 208 -7 126 2 166 6 249 28 183 48 331 138 422 259 104 138 150 284 141
447 -10 164 -63 288 -172 396 -126 127 -315 184 -501 151 -205 -37 -315 -158
-317 -352 -1 -79 22 -177 45 -191 5 -3 16 3 24 15 22 31 81 45 131 32 50 -14
107 -73 122 -128 44 -159 -67 -313 -275 -381 -159 -52 -416 -55 -604 -7 -121
31 -311 116 -270 122 91 12 130 26 155 54 29 35 34 102 11 134 -12 17 -13 13
-9 -31 9 -94 -28 -131 -139 -142 -54 -4 -62 -2 -101 25 -85 61 -157 83 -157
48 0 -14 87 -65 110 -65 7 0 37 -15 68 -33 147 -86 331 -139 551 -158 298 -27
517 40 622 191 85 121 87 279 5 368 -33 37 -70 52 -127 52 -43 0 -58 -5 -79
-25 l-27 -26 -19 43 c-14 31 -19 62 -17 114 4 198 163 334 392 334 336 -1 561
-249 538 -595 -25 -368 -253 -591 -669 -656 -47 -7 -132 -10 -220 -6 -131 4
-152 8 -243 40 -104 36 -130 38 -98 5 12 -12 47 -23 94 -31 70 -12 75 -14 92
-47 32 -63 5 -139 -58 -166 -52 -21 -141 -18 -182 7 l-34 21 -69 -42 c-63 -38
-76 -42 -119 -38 -73 7 -124 48 -361 288 -250 253 -314 312 -468 429 -227 172
-256 189 -269 155 -9 -25 35 -62 132 -110 105 -53 113 -60 213 -179 226 -269
372 -605 398 -911 16 -198 -60 -467 -186 -655 -24 -35 -80 -100 -125 -144
-137 -136 -302 -205 -487 -205 -317 0 -562 167 -652 445 -22 68 -37 193 -29
252 l5 49 87 22 c122 31 220 83 304 163 59 55 135 157 150 203 2 6 33 -4 70
-22 47 -24 77 -47 102 -79 112 -147 74 -380 -73 -445 -47 -21 -103 -18 -154 8
-29 15 -78 73 -78 92 0 7 -5 12 -11 12 -7 0 -8 -19 -3 -57 24 -204 137 -306
354 -320 147 -10 256 30 350 127 85 86 157 241 216 461 32 121 19 237 -31 279
-26 22 -29 4 -9 -62 25 -86 26 -241 1 -285 -9 -18 -28 -35 -42 -39 -30 -7 -92
12 -103 33 -7 12 -12 8 -22 -16 -17 -41 -55 -71 -91 -71 -116 0 -148 136 -74
314 49 118 65 199 65 331 0 141 -19 226 -74 339 -106 217 -295 390 -621 570
-116 64 -165 80 -165 53 0 -33 65 -71 202 -116 193 -64 307 -330 238 -554 -26
-85 -43 -99 -65 -55 -32 62 -127 166 -192 209 -20 13 -26 27 -29 64 -7 97 -71
194 -169 259 -50 34 -169 78 -245 91 -32 6 -38 13 -74 87 -30 62 -57 100 -116
160 -57 57 -73 79 -61 83 9 2 75 9 146 15 307 24 574 -27 1035 -198 303 -112
362 -126 525 -119 150 6 218 23 260 67 l29 30 -66 0 c-62 0 -68 2 -92 31 -20
24 -26 41 -26 80 0 90 58 158 153 179 111 25 217 -21 263 -117 23 -46 26 -63
21 -113 -6 -75 -43 -139 -100 -178 -63 -43 -101 -53 -177 -46 -48 5 -69 3 -75
-6 -12 -20 16 -31 63 -25 24 4 63 8 88 11 24 2 63 13 87 25 92 46 137 115 145
221 4 59 1 75 -22 122 -61 125 -224 168 -365 96 -103 -52 -131 -206 -50 -274
17 -14 37 -26 45 -26 28 0 13 -18 -28 -35 -57 -24 -191 -31 -286 -15 -102 16
-172 38 -385 121 -363 141 -535 178 -858 186 -127 3 -238 1 -291 -6 l-85 -11
-84 40 c-148 70 -216 84 -434 84 -183 1 -195 0 -315 -32 -69 -17 -147 -40
-175 -50 l-50 -18 -89 39 c-172 74 -411 131 -654 157 -218 23 -544 12 -736
-25 -66 -12 -86 -12 -152 0 -192 37 -518 48 -736 25 -243 -26 -482 -83 -654
-157 l-89 -39 -48 17 c-181 65 -363 94 -546 86 -160 -6 -257 -29 -380 -87
l-84 -40 -85 11 c-53 7 -164 9 -291 6 -323 -8 -495 -45 -858 -186 -213 -83
-283 -105 -385 -121 -95 -16 -229 -9 -285 15 -42 17 -57 35 -29 35 8 0 28 12
45 26 81 68 53 222 -50 274 -141 72 -304 29 -365 -96 -23 -47 -26 -63 -22
-122 8 -106 53 -175 145 -221 24 -12 63 -23 87 -25 25 -3 64 -7 88 -11 47 -6
75 5 63 25 -6 9 -27 11 -75 6 -76 -7 -114 3 -177 46 -57 39 -94 103 -100 178
-14 153 124 266 282 231 97 -22 155 -89 155 -180 0 -39 -6 -56 -26 -80 -24
-29 -30 -31 -92 -31 l-66 0 29 -30 c42 -44 110 -61 260 -67 162 -7 222 7 520
117 380 141 532 179 785 200 113 9 350 0 401 -15 12 -4 -4 -26 -61 -83 -59
-60 -86 -98 -116 -160 -36 -74 -42 -81 -74 -87 -76 -13 -195 -57 -245 -91 -98
-65 -162 -162 -169 -259 -3 -39 -9 -51 -32 -66 -52 -34 -146 -133 -176 -187
-37 -64 -49 -59 -78 35 -39 127 -20 287 48 393 58 91 115 135 219 171 100 35
173 79 173 104 0 29 -46 15 -165 -51 -326 -180 -515 -353 -621 -570 -55 -113
-74 -198 -74 -339 0 -130 16 -212 63 -326 57 -140 56 -239 -3 -291 -40 -36
-88 -37 -128 -3 -16 14 -33 37 -37 52 -6 24 -8 25 -16 11 -12 -22 -73 -42
-104 -34 -14 4 -33 21 -42 39 -25 44 -24 199 1 285 20 66 17 84 -9 62 -61 -51
-64 -166 -11 -350 111 -381 274 -535 548 -517 173 11 287 86 331 217 20 62 31
160 18 160 -6 0 -11 -5 -11 -12 0 -19 -49 -77 -78 -92 -146 -73 -292 46 -292
239 0 125 59 224 167 277 37 18 68 28 70 22 15 -46 91 -148 150 -203 84 -80
182 -132 304 -163 l87 -22 5 -49 c8 -59 -7 -184 -29 -252 -90 -278 -335 -445
-652 -445 -279 0 -532 173 -679 465 -136 269 -154 539 -56 849 73 232 218 480
390 666 48 52 79 75 154 112 100 49 145 87 136 112 -13 34 -42 17 -269 -155
-154 -117 -218 -176 -468 -429 -236 -239 -289 -281 -360 -288 -47 -4 -71 5
-157 59 l-33 21 -34 -21 c-40 -25 -129 -28 -181 -7 -39 16 -75 68 -75 106 0
14 8 41 18 60 16 33 21 35 91 47 47 8 82 19 94 31 32 33 6 31 -98 -5 -91 -32
-112 -36 -243 -40 -319 -12 -562 71 -725 246 -97 106 -152 245 -164 416 -23
346 202 594 538 595 229 0 390 -137 392 -334 0 -47 -6 -86 -18 -114 l-18 -43
-26 25 c-48 46 -154 33 -207 -26 -113 -123 -62 -351 102 -463 124 -85 299
-117 527 -96 193 17 342 56 492 129 66 32 146 70 178 85 60 28 76 57 32 57
-30 0 -72 -20 -132 -63 -39 -27 -47 -29 -101 -25 -111 11 -148 48 -139 142 4
44 3 48 -9 31 -23 -32 -18 -99 11 -134 25 -28 64 -42 155 -54 41 -6 -149 -91
-270 -122 -248 -63 -559 -38 -724 59 -94 55 -166 166 -166 255 0 132 106 233
212 202 20 -7 44 -21 52 -32 19 -28 31 -19 52 44 25 74 22 195 -6 269 -60 161
-261 251 -486 218z m5793 -79 l123 -22 127 23 c114 20 159 23 403 23 309 0
417 -12 646 -70 132 -34 324 -102 324 -115 0 -4 -30 -20 -67 -35 -38 -16 -126
-57 -197 -93 l-129 -64 -101 25 c-306 77 -695 81 -948 10 -53 -14 -63 -14
-115 0 -124 35 -255 49 -443 49 -201 0 -335 -16 -506 -58 l-102 -25 -113 57
c-63 31 -154 74 -204 95 l-90 38 49 20 c152 66 351 119 541 145 168 24 174 24
435 21 199 -2 268 -7 367 -24z m-1707 -91 c98 -24 211 -59 223 -69 4 -4 -32
-31 -80 -59 -49 -29 -119 -77 -158 -106 l-69 -54 -51 20 c-108 45 -366 127
-479 153 l-119 28 67 34 c61 31 168 63 251 77 73 11 331 -3 415 -24z m4182 1
c42 -11 107 -35 144 -54 l67 -34 -119 -28 c-113 -26 -371 -108 -479 -153 l-51
-20 -69 54 c-39 29 -109 77 -158 106 -48 28 -84 55 -80 59 19 17 245 78 348
93 76 11 322 -3 397 -23z m-3800 -132 c211 -92 321 -159 265 -159 -20 0 -231
-105 -286 -143 l-53 -35 -136 64 c-75 36 -154 73 -176 82 l-39 18 52 43 c50
42 255 171 272 171 4 0 50 -18 101 -41z m3104 -18 c54 -33 126 -81 158 -107
l60 -47 -40 -18 c-21 -10 -101 -47 -176 -83 l-136 -64 -53 35 c-55 38 -266
143 -286 143 -36 0 -14 23 60 61 97 51 288 138 303 139 5 0 55 -27 110 -59z
m-4138 19 c48 -10 127 -31 176 -45 93 -27 354 -120 364 -130 3 -3 -28 -40 -69
-83 -41 -42 -87 -92 -101 -111 l-26 -34 -93 27 c-174 49 -402 86 -531 86 -36
0 -58 4 -58 11 0 6 17 43 37 83 40 76 167 216 197 216 9 0 56 -9 104 -20z
m5156 -52 c64 -66 146 -193 146 -227 0 -7 -22 -11 -58 -11 -129 0 -357 -37
-531 -86 l-93 -27 -26 34 c-14 19 -60 69 -101 111 -41 43 -72 80 -69 83 22 22
395 143 548 178 105 25 105 25 184 -55z m-2957 -19 c53 -6 138 -21 190 -34
l93 -24 93 24 c269 68 658 57 947 -28 l44 -13 -119 -68 c-66 -38 -196 -116
-289 -174 l-168 -105 -254 128 -254 128 -254 -128 -254 -128 -168 105 c-93 58
-223 136 -289 174 l-120 68 45 13 c68 20 235 52 320 62 110 12 327 13 437 0z
m-714 -166 c216 -125 449 -275 440 -283 -4 -5 -75 -45 -156 -90 l-149 -82
-154 87 c-85 47 -225 122 -311 167 -87 45 -160 83 -163 85 -8 8 43 41 143 93
79 42 200 98 215 100 2 0 63 -34 135 -77z m2302 -3 c134 -67 195 -104 185
-113 -3 -2 -76 -40 -163 -85 -86 -45 -226 -120 -311 -167 l-154 -87 -149 82
c-81 45 -152 85 -156 90 -9 8 153 114 403 262 113 67 171 96 185 92 11 -3 83
-36 160 -74z m-3008 -37 c79 -36 145 -68 147 -72 2 -3 -43 -50 -100 -104
l-104 -99 -92 40 c-51 22 -122 50 -158 62 -36 13 -69 27 -74 31 -10 9 48 83
132 171 64 66 37 69 249 -29z m3735 -62 c32 -41 56 -77 51 -81 -4 -4 -37 -17
-73 -30 -36 -12 -107 -41 -158 -62 l-93 -40 -92 88 c-51 48 -98 94 -106 100
-16 14 4 26 204 115 l130 58 39 -37 c21 -20 65 -70 98 -111z m-1836 -45 c109
-57 213 -112 231 -122 l31 -20 -146 -93 -145 -94 -84 42 -83 41 -83 -41 -84
-42 -146 94 -146 94 26 15 c15 8 117 63 228 122 110 58 200 107 201 107 0 1
90 -46 200 -103z m-3086 67 c0 -5 -7 -43 -15 -86 -8 -43 -15 -99 -15 -123 0
-49 10 -44 -120 -64 -41 -7 -111 -25 -154 -41 -44 -16 -81 -27 -84 -25 -9 10
20 113 43 152 50 85 154 154 269 179 76 17 76 17 76 8z m246 -8 c65 -9 156
-24 203 -35 93 -21 263 -68 270 -76 3 -2 -5 -21 -17 -42 -13 -20 -39 -68 -58
-107 -20 -38 -37 -71 -39 -73 -1 -1 -53 11 -116 28 -124 32 -315 60 -410 60
l-59 0 0 34 c0 37 28 204 36 217 8 13 57 11 190 -6z m5491 -45 c7 -30 15 -88
19 -127 l7 -73 -61 0 c-96 0 -287 -28 -411 -60 -63 -17 -115 -29 -116 -28 -2
2 -19 35 -39 73 -19 39 -45 87 -58 107 -12 21 -20 40 -17 42 7 7 206 63 289
81 109 23 267 44 325 42 l50 -2 12 -55z m148 38 c95 -24 195 -95 240 -172 23
-39 52 -142 43 -152 -3 -2 -40 9 -84 25 -43 16 -113 34 -154 41 -130 20 -120
15 -120 64 0 24 -7 80 -15 123 -8 43 -15 81 -15 85 0 8 38 3 105 -14z m-6539
-85 c-79 -104 -126 -229 -126 -336 0 -68 30 -166 63 -210 25 -33 25 -35 11
-93 -23 -98 -14 -245 20 -324 5 -11 -7 -20 -46 -34 -36 -12 -69 -36 -109 -75
-47 -48 -61 -69 -78 -125 -36 -117 -22 -230 39 -314 40 -55 94 -82 165 -82 59
0 131 28 142 55 3 8 9 15 14 15 11 0 -17 -73 -47 -121 -35 -56 -111 -117 -167
-134 -138 -41 -306 0 -429 106 -73 62 -157 201 -192 316 -7 20 -5 21 23 10 22
-8 42 -8 70 -1 34 9 40 9 44 -7 13 -47 104 -67 166 -35 82 43 92 180 27 369
-57 167 -71 319 -41 462 30 144 155 343 291 460 50 44 183 144 192 145 2 0
-12 -21 -32 -47z m2189 -32 c164 -85 465 -251 465 -256 0 -5 -276 -155 -286
-155 -5 0 -56 28 -114 61 -58 34 -180 101 -272 148 l-167 87 26 33 c31 39 172
161 186 161 6 0 79 -35 162 -79z m2957 15 c41 -35 87 -79 101 -97 l26 -33
-167 -87 c-92 -47 -214 -114 -272 -148 -58 -33 -109 -61 -114 -61 -10 0 -286
150 -286 155 0 11 605 334 626 335 6 0 45 -29 86 -64z m2078 -62 c216 -182
329 -398 330 -629 0 -110 -15 -192 -56 -312 -65 -189 -55 -326 27 -369 62 -32
153 -12 166 35 4 16 10 16 44 7 28 -7 48 -7 70 1 28 11 30 10 23 -10 -35 -115
-119 -254 -192 -316 -123 -106 -291 -147 -429 -106 -56 17 -132 78 -167 134
-30 48 -58 121 -47 121 5 0 11 -7 14 -15 11 -27 83 -55 144 -55 74 0 127 29
170 93 55 83 67 190 32 303 -17 56 -31 77 -78 125 -40 39 -73 63 -109 75 -39
14 -51 23 -46 34 34 79 43 226 20 324 -14 58 -14 60 11 93 33 44 63 142 63
210 0 108 -36 207 -118 322 l-45 64 49 -33 c27 -18 83 -62 124 -96z m-5607
-30 c34 -15 79 -35 99 -45 l37 -19 -64 -95 c-35 -52 -65 -100 -67 -105 -2 -5
-63 15 -137 45 -73 30 -140 55 -148 55 -35 0 -16 60 64 197 l24 42 65 -25 c36
-13 94 -36 127 -50z m4113 -46 c44 -86 50 -118 21 -118 -8 0 -75 -25 -148 -55
-74 -30 -135 -50 -137 -45 -2 5 -33 53 -68 106 -36 53 -63 98 -62 99 4 3 236
100 283 118 48 19 45 22 111 -105z m-2539 -67 c76 -49 137 -92 136 -96 -1 -4
-67 -42 -147 -83 l-145 -75 -145 83 c-80 45 -146 85 -146 89 0 8 280 169 297
170 7 1 74 -39 150 -88z m1007 7 c80 -45 146 -85 146 -89 0 -4 -66 -44 -146
-89 l-145 -83 -143 74 c-79 41 -145 78 -146 83 -3 10 257 184 276 185 7 1 77
-36 158 -81z m-3569 -15 c22 -165 96 -327 203 -445 l33 -37 -42 -22 c-55 -27
-151 -119 -183 -173 -70 -120 -74 -277 -11 -410 13 -28 23 -52 21 -54 -2 -2
-30 0 -61 5 l-58 8 -13 52 c-35 138 -125 251 -242 306 -58 27 -79 32 -162 34
l-95 3 -13 37 c-25 72 -34 169 -23 239 5 37 12 68 14 70 2 3 24 -5 48 -16 99
-44 240 -18 318 61 37 38 81 122 81 157 0 18 -5 22 -32 22 -42 0 -93 31 -118
72 -11 18 -20 36 -20 40 0 13 160 68 237 82 116 21 111 23 118 -31z m357 27
c101 -17 244 -53 255 -63 2 -2 -11 -46 -28 -98 -17 -51 -39 -134 -48 -183
l-17 -90 -87 -17 c-47 -10 -102 -22 -121 -29 -20 -6 -40 -9 -45 -6 -19 12
-104 133 -131 186 -35 70 -67 176 -78 258 l-9 62 98 0 c53 0 148 -9 211 -20z
m1205 -197 c62 -36 115 -68 117 -72 2 -3 -53 -37 -122 -73 l-127 -67 -131 72
c-72 40 -164 87 -203 106 -39 19 -71 39 -71 44 0 13 67 124 103 170 l29 38
147 -77 c80 -42 197 -106 258 -141z m3203 84 c22 -38 40 -72 40 -76 0 -4 -32
-23 -71 -42 -39 -19 -131 -66 -203 -106 l-131 -72 -127 67 c-69 36 -124 70
-122 74 6 10 224 133 384 217 l135 71 28 -32 c15 -18 46 -64 67 -101z m1008
71 c-18 -135 -73 -271 -152 -375 -26 -35 -52 -65 -57 -69 -5 -3 -25 0 -45 6
-19 7 -73 19 -121 29 l-86 17 -19 94 c-11 52 -33 135 -49 183 -17 49 -29 91
-26 93 2 3 35 14 73 25 116 33 274 57 385 58 l106 1 -9 -62z m167 47 c84 -15
245 -69 245 -83 0 -4 -9 -22 -20 -40 -25 -41 -76 -72 -117 -72 -28 0 -33 -4
-33 -22 0 -35 44 -119 81 -157 78 -79 219 -105 318 -61 24 11 46 19 48 16 2
-2 9 -33 14 -70 11 -70 2 -167 -23 -239 l-13 -37 -95 -3 c-83 -2 -104 -7 -162
-34 -117 -55 -207 -168 -242 -306 l-13 -52 -58 -8 c-31 -5 -59 -7 -61 -5 -2 2
8 26 21 54 63 133 59 290 -11 410 -32 54 -128 146 -183 173 l-42 22 33 37
c107 118 181 280 203 445 3 26 10 47 14 47 5 0 48 -7 96 -15z m-2974 -102 c27
-16 49 -30 49 -33 0 -8 -86 -60 -100 -60 -14 0 -100 52 -100 60 0 4 90 59 99
60 1 0 25 -12 52 -27z m-2136 -44 c66 -27 126 -53 133 -57 10 -7 7 -21 -13
-65 -13 -31 -34 -87 -46 -123 l-22 -66 -51 6 c-28 3 -95 9 -148 12 -91 7 -98
9 -98 28 1 32 38 194 61 264 24 73 7 73 184 1z m4354 -1 c23 -70 60 -232 61
-264 0 -19 -7 -21 -97 -28 -54 -3 -121 -9 -149 -12 l-52 -6 -22 68 c-13 38
-33 93 -46 123 -13 29 -24 55 -24 56 0 6 283 122 302 124 3 1 16 -27 27 -61z
m-5567 2 c22 -38 71 -68 125 -76 24 -3 43 -10 43 -16 0 -23 -42 -88 -78 -120
-48 -43 -136 -78 -199 -78 -54 0 -123 35 -123 62 0 46 81 163 153 219 27 21
52 39 55 39 4 0 15 -14 24 -30z m2641 -75 c65 -37 115 -71 110 -76 -4 -4 -72
-42 -151 -84 l-144 -76 -66 40 c-178 109 -205 127 -204 135 0 5 63 44 139 86
l138 78 30 -18 c17 -10 83 -48 148 -85z m1655 10 c68 -37 120 -71 115 -76 -8
-8 -222 -142 -255 -160 -14 -7 -51 8 -160 66 -79 42 -147 80 -151 84 -5 5 58
47 140 94 131 75 150 84 168 73 11 -7 76 -43 143 -81z m2379 56 c72 -56 153
-173 153 -219 0 -27 -69 -62 -123 -62 -63 0 -151 35 -199 78 -36 32 -78 97
-78 120 0 6 19 13 43 16 54 8 103 38 125 76 9 16 20 30 24 30 3 0 28 -18 55
-39z m-3450 -47 l73 -45 75 46 74 47 146 -77 c80 -42 145 -80 145 -83 0 -4
-58 -40 -129 -80 l-130 -72 -90 47 -91 48 -91 -48 -90 -47 -130 72 c-71 40
-128 77 -126 81 2 7 274 156 286 157 2 0 37 -21 78 -46z m-1711 -85 c174 -90
257 -140 247 -149 -14 -14 -215 -102 -232 -102 -14 0 -200 61 -210 68 -9 8 62
244 73 244 2 0 56 -28 122 -61z m3714 4 c22 -60 50 -159 50 -179 0 -6 -27 -19
-61 -29 -34 -9 -80 -25 -104 -35 l-43 -18 -113 49 c-62 27 -117 53 -122 58 -6
6 13 22 49 43 83 47 308 166 316 167 4 1 16 -25 28 -56z m-2971 -106 c74 -45
133 -87 133 -92 -1 -6 -54 -38 -119 -72 l-118 -62 -147 87 -147 87 127 66 c70
36 129 67 132 67 3 1 65 -36 139 -81z m2348 15 l132 -67 -147 -87 -147 -87
-120 63 c-66 35 -120 67 -120 71 0 5 61 46 135 91 74 46 135 84 135 84 0 0 59
-31 132 -68z m-1637 -34 c58 -33 108 -63 112 -67 4 -3 -32 -28 -80 -54 -48
-25 -119 -65 -158 -86 l-71 -40 -114 71 c-63 38 -120 76 -127 83 -12 10 13 27
139 93 129 68 157 79 174 70 11 -6 67 -38 125 -70z m957 1 c128 -67 153 -84
141 -94 -7 -7 -64 -45 -127 -83 l-114 -71 -71 40 c-39 21 -110 60 -158 86 -48
26 -85 50 -82 53 5 5 245 147 253 149 2 1 73 -36 158 -80z m-565 -60 l62 -31
-60 -34 c-32 -19 -61 -34 -64 -34 -3 0 -32 15 -64 34 l-60 34 60 30 c32 17 60
31 62 32 1 0 30 -14 64 -31z m-1395 -75 c78 -47 143 -87 143 -90 0 -2 -53 -31
-119 -63 l-118 -60 -59 45 c-32 24 -99 68 -148 96 -49 29 -85 53 -80 55 5 2
59 25 119 52 61 27 112 49 114 50 2 0 69 -38 148 -85z m2933 32 c63 -27 116
-50 118 -51 1 -1 -37 -25 -85 -53 -49 -28 -115 -72 -147 -96 l-59 -45 -120 60
c-66 33 -116 64 -111 68 18 17 279 171 284 169 3 -2 57 -25 120 -52z m-4001
-3 c0 -27 -3 -65 -7 -86 l-7 -37 -65 31 c-68 32 -130 74 -130 88 0 10 128 42
198 50 8 1 12 -14 11 -46z m252 36 c47 -6 91 -14 97 -18 6 -4 8 -32 5 -73 -7
-80 -1 -77 -170 -85 l-123 -6 0 97 0 96 52 0 c28 0 91 -5 139 -11z m4489 -84
l0 -95 -89 0 c-73 0 -189 13 -196 23 -1 1 -5 32 -8 69 -6 60 -4 68 13 73 32
10 141 22 213 24 l67 1 0 -95z m203 68 c37 -8 67 -19 67 -24 0 -21 -182 -125
-200 -114 -4 3 -8 41 -9 85 l-2 81 38 -6 c21 -3 68 -13 106 -22z m-4443 -39
c45 -14 80 -27 78 -30 -7 -6 -150 -54 -162 -54 -7 0 -10 20 -8 55 2 30 5 55 7
55 2 0 41 -12 85 -26z m3892 -29 c2 -32 -1 -55 -7 -55 -18 0 -166 52 -162 57
5 5 146 52 159 53 3 0 8 -25 10 -55z m-2702 -31 c69 -41 128 -78 132 -82 4 -4
-47 -38 -114 -75 l-120 -68 -139 83 c-76 45 -136 85 -133 88 5 5 234 126 244
129 3 0 61 -33 130 -75z m641 39 l68 -38 74 39 74 40 139 -77 c203 -111 194
-94 78 -160 -54 -30 -120 -65 -145 -78 l-47 -22 -86 47 -86 46 -86 -46 -86
-47 -47 22 c-106 52 -242 134 -234 142 12 12 296 169 307 169 4 0 39 -17 77
-37z m1038 -31 c111 -57 122 -65 105 -76 -11 -7 -74 -45 -140 -85 l-122 -72
-121 68 c-66 37 -117 71 -112 76 14 14 256 157 261 154 3 -1 61 -31 129 -65z
m-3586 24 c28 -22 104 -60 188 -94 24 -9 26 -16 32 -94 6 -85 34 -219 61 -297
9 -24 16 -45 16 -46 0 -15 -232 -60 -389 -76 -143 -14 -135 -17 -172 80 -58
154 -25 330 84 449 40 43 120 102 140 102 4 0 23 -11 40 -24z m5328 -4 c170
-109 242 -330 170 -523 -37 -97 -29 -94 -172 -80 -123 12 -294 42 -357 62 -23
8 -32 16 -28 25 35 92 76 291 76 371 0 38 3 45 28 55 80 32 170 78 192 96 32
28 38 27 91 -6z m-4316 -102 c39 -23 87 -56 108 -72 l38 -30 -63 -30 c-35 -16
-137 -61 -227 -99 -126 -54 -166 -67 -172 -57 -24 38 -61 173 -66 241 -6 76
-6 77 18 78 13 0 62 13 109 28 l85 28 50 -22 c28 -12 82 -41 120 -65z m3578
30 c18 0 19 -6 14 -72 -4 -65 -44 -212 -65 -246 -7 -10 -46 3 -173 57 -90 38
-192 83 -227 99 l-63 30 38 30 c52 41 168 111 227 137 l49 22 91 -29 c49 -15
99 -28 109 -28z m-3996 -110 c12 -50 35 -121 52 -157 25 -51 29 -68 19 -75
-16 -10 -282 -98 -297 -98 -19 0 -73 211 -86 340 l-7 66 69 -4 c37 -1 95 1
128 6 107 17 98 23 122 -78z m4276 75 l89 0 -7 -65 c-14 -136 -67 -340 -88
-340 -15 0 -278 88 -295 98 -10 7 -5 24 19 75 17 36 40 107 52 157 l22 90 60
-7 c33 -5 100 -8 148 -8z m-3265 -66 c64 -40 127 -79 140 -87 22 -14 19 -17
-135 -105 -87 -49 -163 -91 -170 -94 -6 -2 -26 17 -44 43 -18 26 -64 80 -102
121 -67 71 -69 73 -46 82 13 5 71 32 129 60 58 27 106 50 108 51 2 0 56 -32
120 -71z m2240 25 c53 -25 112 -53 130 -61 l34 -14 -70 -73 c-38 -40 -83 -94
-101 -120 -18 -26 -38 -45 -44 -43 -7 3 -83 45 -170 95 l-159 90 94 57 c51 31
113 70 138 86 25 16 46 29 48 29 1 0 46 -21 100 -46z m-1580 -82 c79 -41 142
-75 140 -77 -1 -2 -60 -35 -130 -73 l-128 -71 -119 67 c-189 107 -184 88 -45
165 65 37 124 66 129 64 6 -1 75 -35 153 -75z m985 11 c140 -77 145 -58 -44
-165 l-119 -67 -128 71 c-70 38 -128 71 -130 73 -4 4 278 152 292 154 5 0 63
-29 129 -66z m-3911 -35 c67 -31 135 -91 178 -157 32 -50 76 -168 67 -177 -10
-10 -122 28 -198 67 -41 22 -101 62 -132 89 -54 49 -147 175 -147 200 0 9 22
11 88 8 66 -3 100 -10 144 -30z m6788 25 c0 -5 -14 -33 -32 -63 -47 -83 -149
-178 -243 -227 -79 -41 -192 -80 -202 -70 -3 3 3 30 12 59 46 144 151 254 278
293 45 15 187 20 187 8z m-3447 -38 c31 -16 57 -33 57 -36 0 -4 -27 -16 -60
-28 l-60 -22 -60 22 c-33 12 -60 24 -60 28 0 7 112 70 121 68 3 -1 31 -15 62
-32z m-1407 -47 c39 -40 85 -94 102 -120 l32 -46 -200 -101 -200 -102 -37 20
c-70 35 -161 110 -203 165 -23 30 -39 59 -36 64 3 5 40 22 83 37 43 16 143 57
223 91 80 34 150 63 156 63 6 1 42 -32 80 -71z m2891 21 c65 -28 165 -69 223
-91 58 -22 109 -43 114 -48 25 -24 -133 -179 -237 -231 l-37 -20 -200 102
-200 101 32 46 c34 50 166 192 179 192 4 0 61 -23 126 -51z m-2216 -84 c62
-35 125 -71 138 -78 23 -14 21 -15 -70 -64 -128 -68 -276 -135 -382 -172 -49
-17 -90 -31 -92 -31 -2 0 -11 26 -20 57 -9 31 -28 80 -42 107 -14 28 -22 52
-17 53 5 2 86 46 179 97 94 52 175 95 181 95 5 1 62 -28 125 -64z m1646 -32
c98 -53 179 -97 181 -99 2 -1 -8 -24 -21 -51 -14 -27 -33 -75 -42 -106 -19
-66 -4 -65 -155 -10 -86 32 -404 183 -423 202 -4 4 39 33 95 64 57 31 117 65
133 76 17 11 35 20 42 20 6 1 92 -43 190 -96z m-1073 62 c83 -31 109 -31 191
0 l66 25 130 -71 c71 -39 129 -75 129 -79 0 -10 -197 -100 -317 -145 l-103
-38 -102 38 c-133 49 -319 136 -316 147 2 5 228 137 254 147 1 1 32 -10 68
-24z m-1781 -150 c41 -59 139 -147 194 -173 18 -9 33 -19 33 -22 0 -12 -228
-98 -342 -130 l-69 -19 -44 57 c-54 68 -140 231 -128 241 4 4 49 20 98 34 50
15 115 35 145 46 30 11 60 20 65 20 6 0 27 -24 48 -54z m3939 10 c77 -25 146
-45 153 -45 8 0 17 -4 20 -10 9 -14 -77 -176 -130 -242 l-44 -57 -69 19 c-114
32 -342 118 -342 130 0 3 15 13 33 22 55 26 153 114 194 173 21 30 40 54 42
55 2 0 66 -20 143 -45z m-3214 -107 c16 -40 33 -87 37 -105 6 -31 5 -32 -32
-40 -65 -14 -233 -8 -320 12 -46 10 -83 21 -83 24 0 5 347 178 362 180 3 1 20
-32 36 -71z m2526 -18 c96 -47 176 -88 176 -91 0 -3 -37 -14 -82 -24 -88 -20
-256 -26 -321 -12 -37 8 -38 9 -32 40 10 48 66 178 75 175 4 -2 87 -41 184
-88z m-3637 -33 c24 -45 63 -109 88 -142 29 -38 41 -63 35 -69 -5 -5 -72 -12
-147 -14 -160 -5 -225 7 -340 63 -67 33 -193 140 -193 164 0 5 35 12 78 16 81
7 384 54 391 61 2 2 14 4 25 4 16 0 31 -19 63 -83z m4778 49 c83 -14 185 -28
228 -31 42 -4 77 -10 77 -15 0 -24 -127 -132 -193 -165 -115 -56 -180 -68
-340 -63 -157 5 -175 13 -135 55 34 37 97 136 128 202 23 50 26 53 55 48 16
-3 98 -17 180 -31z m-3931 -166 c45 -8 122 -11 191 -8 89 4 115 2 119 -8 8
-20 -11 -119 -29 -158 -25 -52 -93 -110 -161 -137 -52 -21 -76 -23 -199 -24
-156 0 -218 14 -346 81 -60 32 -205 142 -197 150 2 2 58 19 123 38 66 19 165
52 220 73 l100 39 51 -17 c29 -9 86 -23 128 -29z m3356 -75 c51 -13 95 -26 97
-29 8 -8 -148 -126 -207 -156 -122 -62 -182 -75 -335 -75 -174 1 -232 19 -311
99 -53 55 -73 103 -77 186 l-2 45 130 -3 c130 -3 232 10 319 40 37 14 43 12
166 -34 70 -26 169 -59 220 -73z"/>
</g>
</svg>
